<svg width="512" height="512" viewBox="0 0 512 512" fill="none" xmlns="http://www.w3.org/2000/svg">
    <defs>
        <linearGradient id="borderB" x1="72" y1="76" x2="434" y2="432" gradientUnits="userSpaceOnUse">
            <stop offset="0" stop-color="#FFD7DE" />
            <stop offset="1" stop-color="#E53B56" />
        </linearGradient>
        <linearGradient id="inkB" x1="122" y1="242" x2="390" y2="242" gradientUnits="userSpaceOnUse">
            <stop offset="0" stop-color="#0E63E6" />
            <stop offset="1" stop-color="#5EA7FF" />
        </linearGradient>
        <filter id="shadowB" x="58" y="56" width="396" height="396" filterUnits="userSpaceOnUse"
            color-interpolation-filters="sRGB">
            <feFlood flood-opacity="0" result="BackgroundImageFix" />
            <feColorMatrix in="SourceAlpha" type="matrix" values="0 0 0 0 0 0 0 0 0 0 0 0 0 0 0 0 0 0 127 0"
                result="hardAlpha" />
            <feOffset dy="16" />
            <feGaussianBlur stdDeviation="16" />
            <feColorMatrix type="matrix" values="0 0 0 0 0.0745098 0 0 0 0 0.188235 0 0 0 0 0.34902 0 0 0 0.15 0" />
            <feBlend mode="normal" in2="BackgroundImageFix" result="effect1_dropShadow_1_1" />
            <feBlend mode="normal" in="SourceGraphic" in2="effect1_dropShadow_1_1" result="shape" />
        </filter>
    </defs>

    <g filter="url(#shadowB)">
        <rect x="74" y="72" width="364" height="364" rx="88" fill="white" />
        <rect x="74" y="72" width="364" height="364" rx="88" stroke="url(#borderB)" stroke-width="8" />
    </g>

    <rect x="122" y="126" width="224" height="16" rx="8" fill="#D9E8FF" />
    <rect x="122" y="158" width="228" height="16" rx="8" fill="#D9E8FF" />
    <rect x="122" y="190" width="238" height="16" rx="8" fill="#D9E8FF" />
    <rect x="122" y="222" width="184" height="16" rx="8" fill="#D9E8FF" />

    <text x="122" y="322" fill="url(#inkB)" font-size="84" font-weight="800"
        font-family="Manrope, Segoe UI, Arial, sans-serif">HeHe</text>

    <rect x="122" y="344" width="266" height="18" rx="9" fill="#D9E8FF" />
    <rect x="122" y="376" width="198" height="18" rx="9" fill="#D9E8FF" />

    <path d="M392 134L401 158L425 167L401 176L392 200L383 176L359 167L383 158L392 134Z" fill="#FFD84D" />
</svg>